# Blender v2.76 (sub 0) OBJ File: ''
# www.blender.org
mtllib cube_256f.mtl
o Cube
v -5.000000 -1.500000 5.000000
v -5.000000 1.500000 5.000000
v -5.000000 -1.500000 -5.000000
v -5.000000 1.500000 -5.000000
v 5.000000 -1.500000 5.000000
v 5.000000 1.500000 5.000000
v 5.000000 -1.500000 -5.000000
v 5.000000 1.500000 -5.000000
v -5.000000 1.500000 0.000000
v -5.000000 -1.500000 0.000000
v 0.000000 1.500000 -5.000000
v 0.000000 -1.500000 -5.000000
v 5.000000 1.500000 0.000000
v 5.000000 -1.500000 0.000000
v 0.000000 1.500000 5.000000
v 0.000000 -1.500000 5.000000
v 0.000000 1.500000 0.000000
v 0.000000 -1.500000 0.000000
v -5.000000 0.000000 5.000000
v -5.000000 1.500000 -2.500000
v -5.000000 0.000000 -5.000000
v -5.000000 -1.500000 2.500000
v 2.500000 1.500000 -5.000000
v 5.000000 0.000000 -5.000000
v -2.500000 -1.500000 -5.000000
v 5.000000 1.500000 2.500000
v 5.000000 0.000000 5.000000
v 5.000000 -1.500000 -2.500000
v -2.500000 1.500000 5.000000
v 2.500000 -1.500000 5.000000
v -5.000000 1.500000 2.500000
v -5.000000 -1.500000 -2.500000
v -2.500000 1.500000 -5.000000
v 2.500000 -1.500000 -5.000000
v 5.000000 1.500000 -2.500000
v 5.000000 -1.500000 2.500000
v 2.500000 1.500000 5.000000
v -2.500000 -1.500000 5.000000
v -2.500000 1.500000 0.000000
v 2.500000 1.500000 0.000000
v 0.000000 1.500000 2.500000
v 0.000000 1.500000 -2.500000
v 2.500000 -1.500000 0.000000
v -2.500000 -1.500000 0.000000
v 0.000000 -1.500000 2.500000
v 0.000000 -1.500000 -2.500000
v 0.000000 0.000000 5.000000
v 5.000000 0.000000 0.000000
v 0.000000 0.000000 -5.000000
v -5.000000 0.000000 0.000000
v -5.000000 0.000000 2.500000
v -2.500000 0.000000 -5.000000
v 5.000000 0.000000 -2.500000
v 2.500000 0.000000 5.000000
v -2.500000 -1.500000 -2.500000
v -2.500000 -1.500000 2.500000
v 2.500000 -1.500000 2.500000
v 2.500000 1.500000 -2.500000
v 2.500000 1.500000 2.500000
v -2.500000 1.500000 2.500000
v -2.500000 1.500000 -2.500000
v 2.500000 -1.500000 -2.500000
v -2.500000 0.000000 5.000000
v 5.000000 0.000000 2.500000
v 2.500000 0.000000 -5.000000
v -5.000000 0.000000 -2.500000
v -5.000000 0.750000 5.000000
v -5.000000 1.500000 -3.750000
v -5.000000 -0.750000 -5.000000
v -5.000000 -1.500000 3.750000
v 3.750000 1.500000 -5.000000
v 5.000000 -0.750000 -5.000000
v -3.750000 -1.500000 -5.000000
v 5.000000 1.500000 3.750000
v 5.000000 -0.750000 5.000000
v 5.000000 -1.500000 -3.750000
v -3.750000 1.500000 5.000000
v 3.750000 -1.500000 5.000000
v -5.000000 1.500000 1.250000
v -5.000000 -1.500000 -1.250000
v -1.250000 1.500000 -5.000000
v 1.250000 -1.500000 -5.000000
v 5.000000 1.500000 -1.250000
v 5.000000 -1.500000 1.250000
v 1.250000 1.500000 5.000000
v -1.250000 -1.500000 5.000000
v -3.750000 1.500000 0.000000
v 1.250000 1.500000 0.000000
v 0.000000 1.500000 3.750000
v 0.000000 1.500000 -1.250000
v 3.750000 -1.500000 0.000000
v -1.250000 -1.500000 0.000000
v 0.000000 -1.500000 3.750000
v 0.000000 -1.500000 -1.250000
v 0.000000 -0.750000 5.000000
v 5.000000 -0.750000 0.000000
v 0.000000 -0.750000 -5.000000
v -5.000000 -0.750000 0.000000
v -5.000000 -0.750000 5.000000
v -5.000000 1.500000 -1.250000
v -5.000000 0.750000 -5.000000
v -5.000000 -1.500000 1.250000
v 1.250000 1.500000 -5.000000
v 5.000000 0.750000 -5.000000
v -1.250000 -1.500000 -5.000000
v 5.000000 1.500000 1.250000
v 5.000000 0.750000 5.000000
v 5.000000 -1.500000 -1.250000
v -1.250000 1.500000 5.000000
v 1.250000 -1.500000 5.000000
v -5.000000 1.500000 3.750000
v -5.000000 -1.500000 -3.750000
v -3.750000 1.500000 -5.000000
v 3.750000 -1.500000 -5.000000
v 5.000000 1.500000 -3.750000
v 5.000000 -1.500000 3.750000
v 3.750000 1.500000 5.000000
v -3.750000 -1.500000 5.000000
v -1.250000 1.500000 0.000000
v 3.750000 1.500000 0.000000
v 0.000000 1.500000 1.250000
v 0.000000 1.500000 -3.750000
v 1.250000 -1.500000 0.000000
v -3.750000 -1.500000 0.000000
v 0.000000 -1.500000 1.250000
v 0.000000 -1.500000 -3.750000
v 0.000000 0.750000 5.000000
v 5.000000 0.750000 0.000000
v 0.000000 0.750000 -5.000000
v -5.000000 0.750000 0.000000
v -5.000000 -0.750000 2.500000
v -5.000000 0.750000 2.500000
v -5.000000 0.000000 3.750000
v -5.000000 0.000000 1.250000
v -2.500000 -0.750000 -5.000000
v -2.500000 0.750000 -5.000000
v -3.750000 0.000000 -5.000000
v -1.250000 0.000000 -5.000000
v 5.000000 -0.750000 -2.500000
v 5.000000 0.750000 -2.500000
v 5.000000 0.000000 -3.750000
v 5.000000 0.000000 -1.250000
v 2.500000 -0.750000 5.000000
v 2.500000 0.750000 5.000000
v 3.750000 0.000000 5.000000
v 1.250000 0.000000 5.000000
v -1.250000 -1.500000 -2.500000
v -3.750000 -1.500000 -2.500000
v -2.500000 -1.500000 -1.250000
v -2.500000 -1.500000 -3.750000
v -1.250000 -1.500000 2.500000
v -3.750000 -1.500000 2.500000
v -2.500000 -1.500000 3.750000
v -2.500000 -1.500000 1.250000
v 3.750000 -1.500000 2.500000
v 1.250000 -1.500000 2.500000
v 2.500000 -1.500000 3.750000
v 2.500000 -1.500000 1.250000
v 1.250000 1.500000 -2.500000
v 3.750000 1.500000 -2.500000
v 2.500000 1.500000 -1.250000
v 2.500000 1.500000 -3.750000
v 1.250000 1.500000 2.500000
v 3.750000 1.500000 2.500000
v 2.500000 1.500000 3.750000
v 2.500000 1.500000 1.250000
v -3.750000 1.500000 2.500000
v -1.250000 1.500000 2.500000
v -2.500000 1.500000 3.750000
v -2.500000 1.500000 1.250000
v -3.750000 1.500000 -2.500000
v -1.250000 1.500000 -2.500000
v -2.500000 1.500000 -1.250000
v -2.500000 1.500000 -3.750000
v 3.750000 -1.500000 -2.500000
v 1.250000 -1.500000 -2.500000
v 2.500000 -1.500000 -1.250000
v 2.500000 -1.500000 -3.750000
v -2.500000 -0.750000 5.000000
v -2.500000 0.750000 5.000000
v -1.250000 0.000000 5.000000
v -3.750000 0.000000 5.000000
v 5.000000 -0.750000 2.500000
v 5.000000 0.750000 2.500000
v 5.000000 0.000000 1.250000
v 5.000000 0.000000 3.750000
v 2.500000 -0.750000 -5.000000
v 2.500000 0.750000 -5.000000
v 1.250000 0.000000 -5.000000
v 3.750000 0.000000 -5.000000
v -5.000000 -0.750000 -2.500000
v -5.000000 0.750000 -2.500000
v -5.000000 0.000000 -1.250000
v -5.000000 0.000000 -3.750000
v -5.000000 0.750000 -3.750000
v -5.000000 0.750000 -1.250000
v -5.000000 -0.750000 -1.250000
v 3.750000 0.750000 -5.000000
v 1.250000 0.750000 -5.000000
v 1.250000 -0.750000 -5.000000
v 5.000000 0.750000 3.750000
v 5.000000 0.750000 1.250000
v 5.000000 -0.750000 1.250000
v -3.750000 0.750000 5.000000
v -1.250000 0.750000 5.000000
v -1.250000 -0.750000 5.000000
v 1.250000 -1.500000 -3.750000
v 1.250000 -1.500000 -1.250000
v 3.750000 -1.500000 -1.250000
v -1.250000 1.500000 -3.750000
v -1.250000 1.500000 -1.250000
v -3.750000 1.500000 -1.250000
v -1.250000 1.500000 1.250000
v -1.250000 1.500000 3.750000
v -3.750000 1.500000 3.750000
v 3.750000 1.500000 1.250000
v 3.750000 1.500000 3.750000
v 1.250000 1.500000 3.750000
v 3.750000 1.500000 -3.750000
v 3.750000 1.500000 -1.250000
v 1.250000 1.500000 -1.250000
v 1.250000 -1.500000 1.250000
v 1.250000 -1.500000 3.750000
v 3.750000 -1.500000 3.750000
v -3.750000 -1.500000 1.250000
v -3.750000 -1.500000 3.750000
v -1.250000 -1.500000 3.750000
v -3.750000 -1.500000 -3.750000
v -3.750000 -1.500000 -1.250000
v -1.250000 -1.500000 -1.250000
v 1.250000 0.750000 5.000000
v 3.750000 0.750000 5.000000
v 3.750000 -0.750000 5.000000
v 5.000000 0.750000 -1.250000
v 5.000000 0.750000 -3.750000
v 5.000000 -0.750000 -3.750000
v -1.250000 0.750000 -5.000000
v -3.750000 0.750000 -5.000000
v -3.750000 -0.750000 -5.000000
v -5.000000 0.750000 1.250000
v -5.000000 0.750000 3.750000
v -5.000000 -0.750000 3.750000
v -5.000000 -0.750000 1.250000
v -1.250000 -0.750000 -5.000000
v 5.000000 -0.750000 -1.250000
v 1.250000 -0.750000 5.000000
v -1.250000 -1.500000 -3.750000
v -1.250000 -1.500000 1.250000
v 3.750000 -1.500000 1.250000
v 1.250000 1.500000 -3.750000
v 1.250000 1.500000 1.250000
v -3.750000 1.500000 1.250000
v -3.750000 1.500000 -3.750000
v 3.750000 -1.500000 -3.750000
v -3.750000 -0.750000 5.000000
v 5.000000 -0.750000 3.750000
v 3.750000 -0.750000 -5.000000
v -5.000000 -0.750000 -3.750000
vn -1.000000 0.000000 0.000000
vn 0.000000 0.000000 -1.000000
vn 1.000000 0.000000 0.000000
vn 0.000000 0.000000 1.000000
vn 0.000000 -1.000000 0.000000
vn 0.000000 1.000000 0.000000
usemtl None
s off
f 258//1 69//1 3//1 112//1
f 257//2 72//2 7//2 114//2
f 256//3 75//3 5//3 116//3
f 255//4 99//4 1//4 118//4
f 254//5 114//5 7//5 76//5
f 253//6 113//6 4//6 68//6
f 252//6 87//6 9//6 79//6
f 251//6 88//6 17//6 121//6
f 250//6 103//6 11//6 122//6
f 249//5 91//5 14//5 84//5
f 248//5 92//5 18//5 125//5
f 247//5 105//5 12//5 126//5
f 246//4 95//4 16//4 110//4
f 245//3 96//3 14//3 108//3
f 244//2 97//2 12//2 105//2
f 243//1 98//1 10//1 102//1
f 242//1 131//1 22//1 70//1
f 241//1 132//1 51//1 133//1
f 240//1 130//1 50//1 134//1
f 239//2 135//2 25//2 73//2
f 238//2 136//2 52//2 137//2
f 237//2 129//2 49//2 138//2
f 236//3 139//3 28//3 76//3
f 235//3 140//3 53//3 141//3
f 234//3 128//3 48//3 142//3
f 233//4 143//4 30//4 78//4
f 232//4 144//4 54//4 145//4
f 231//4 127//4 47//4 146//4
f 230//5 147//5 46//5 94//5
f 229//5 148//5 55//5 149//5
f 228//5 73//5 25//5 150//5
f 227//5 151//5 45//5 93//5
f 226//5 152//5 56//5 153//5
f 225//5 124//5 44//5 154//5
f 224//5 155//5 36//5 116//5
f 223//5 156//5 57//5 157//5
f 222//5 123//5 43//5 158//5
f 221//6 159//6 42//6 90//6
f 220//6 160//6 58//6 161//6
f 219//6 71//6 23//6 162//6
f 218//6 163//6 41//6 89//6
f 217//6 164//6 59//6 165//6
f 216//6 120//6 40//6 166//6
f 215//6 167//6 31//6 111//6
f 214//6 168//6 60//6 169//6
f 213//6 119//6 39//6 170//6
f 212//6 171//6 20//6 100//6
f 211//6 172//6 61//6 173//6
f 210//6 81//6 33//6 174//6
f 209//5 175//5 28//5 108//5
f 208//5 176//5 62//5 177//5
f 207//5 82//5 34//5 178//5
f 206//4 179//4 38//4 86//4
f 205//4 180//4 63//4 181//4
f 204//4 67//4 19//4 182//4
f 203//3 183//3 36//3 84//3
f 202//3 184//3 64//3 185//3
f 201//3 107//3 27//3 186//3
f 200//2 187//2 34//2 82//2
f 199//2 188//2 65//2 189//2
f 198//2 104//2 24//2 190//2
f 197//1 191//1 32//1 80//1
f 196//1 192//1 66//1 193//1
f 195//1 101//1 21//1 194//1
f 192//1 195//1 194//1 66//1
f 20//1 68//1 195//1 192//1
f 68//1 4//1 101//1 195//1
f 130//1 196//1 193//1 50//1
f 9//1 100//1 196//1 130//1
f 100//1 20//1 192//1 196//1
f 98//1 197//1 80//1 10//1
f 50//1 193//1 197//1 98//1
f 193//1 66//1 191//1 197//1
f 188//2 198//2 190//2 65//2
f 23//2 71//2 198//2 188//2
f 71//2 8//2 104//2 198//2
f 129//2 199//2 189//2 49//2
f 11//2 103//2 199//2 129//2
f 103//2 23//2 188//2 199//2
f 97//2 200//2 82//2 12//2
f 49//2 189//2 200//2 97//2
f 189//2 65//2 187//2 200//2
f 184//3 201//3 186//3 64//3
f 26//3 74//3 201//3 184//3
f 74//3 6//3 107//3 201//3
f 128//3 202//3 185//3 48//3
f 13//3 106//3 202//3 128//3
f 106//3 26//3 184//3 202//3
f 96//3 203//3 84//3 14//3
f 48//3 185//3 203//3 96//3
f 185//3 64//3 183//3 203//3
f 180//4 204//4 182//4 63//4
f 29//4 77//4 204//4 180//4
f 77//4 2//4 67//4 204//4
f 127//4 205//4 181//4 47//4
f 15//4 109//4 205//4 127//4
f 109//4 29//4 180//4 205//4
f 95//4 206//4 86//4 16//4
f 47//4 181//4 206//4 95//4
f 181//4 63//4 179//4 206//4
f 176//5 207//5 178//5 62//5
f 46//5 126//5 207//5 176//5
f 126//5 12//5 82//5 207//5
f 123//5 208//5 177//5 43//5
f 18//5 94//5 208//5 123//5
f 94//5 46//5 176//5 208//5
f 91//5 209//5 108//5 14//5
f 43//5 177//5 209//5 91//5
f 177//5 62//5 175//5 209//5
f 172//6 210//6 174//6 61//6
f 42//6 122//6 210//6 172//6
f 122//6 11//6 81//6 210//6
f 119//6 211//6 173//6 39//6
f 17//6 90//6 211//6 119//6
f 90//6 42//6 172//6 211//6
f 87//6 212//6 100//6 9//6
f 39//6 173//6 212//6 87//6
f 173//6 61//6 171//6 212//6
f 168//6 213//6 170//6 60//6
f 41//6 121//6 213//6 168//6
f 121//6 17//6 119//6 213//6
f 109//6 214//6 169//6 29//6
f 15//6 89//6 214//6 109//6
f 89//6 41//6 168//6 214//6
f 77//6 215//6 111//6 2//6
f 29//6 169//6 215//6 77//6
f 169//6 60//6 167//6 215//6
f 164//6 216//6 166//6 59//6
f 26//6 106//6 216//6 164//6
f 106//6 13//6 120//6 216//6
f 117//6 217//6 165//6 37//6
f 6//6 74//6 217//6 117//6
f 74//6 26//6 164//6 217//6
f 85//6 218//6 89//6 15//6
f 37//6 165//6 218//6 85//6
f 165//6 59//6 163//6 218//6
f 160//6 219//6 162//6 58//6
f 35//6 115//6 219//6 160//6
f 115//6 8//6 71//6 219//6
f 120//6 220//6 161//6 40//6
f 13//6 83//6 220//6 120//6
f 83//6 35//6 160//6 220//6
f 88//6 221//6 90//6 17//6
f 40//6 161//6 221//6 88//6
f 161//6 58//6 159//6 221//6
f 156//5 222//5 158//5 57//5
f 45//5 125//5 222//5 156//5
f 125//5 18//5 123//5 222//5
f 110//5 223//5 157//5 30//5
f 16//5 93//5 223//5 110//5
f 93//5 45//5 156//5 223//5
f 78//5 224//5 116//5 5//5
f 30//5 157//5 224//5 78//5
f 157//5 57//5 155//5 224//5
f 152//5 225//5 154//5 56//5
f 22//5 102//5 225//5 152//5
f 102//5 10//5 124//5 225//5
f 118//5 226//5 153//5 38//5
f 1//5 70//5 226//5 118//5
f 70//5 22//5 152//5 226//5
f 86//5 227//5 93//5 16//5
f 38//5 153//5 227//5 86//5
f 153//5 56//5 151//5 227//5
f 148//5 228//5 150//5 55//5
f 32//5 112//5 228//5 148//5
f 112//5 3//5 73//5 228//5
f 124//5 229//5 149//5 44//5
f 10//5 80//5 229//5 124//5
f 80//5 32//5 148//5 229//5
f 92//5 230//5 94//5 18//5
f 44//5 149//5 230//5 92//5
f 149//5 55//5 147//5 230//5
f 144//4 231//4 146//4 54//4
f 37//4 85//4 231//4 144//4
f 85//4 15//4 127//4 231//4
f 107//4 232//4 145//4 27//4
f 6//4 117//4 232//4 107//4
f 117//4 37//4 144//4 232//4
f 75//4 233//4 78//4 5//4
f 27//4 145//4 233//4 75//4
f 145//4 54//4 143//4 233//4
f 140//3 234//3 142//3 53//3
f 35//3 83//3 234//3 140//3
f 83//3 13//3 128//3 234//3
f 104//3 235//3 141//3 24//3
f 8//3 115//3 235//3 104//3
f 115//3 35//3 140//3 235//3
f 72//3 236//3 76//3 7//3
f 24//3 141//3 236//3 72//3
f 141//3 53//3 139//3 236//3
f 136//2 237//2 138//2 52//2
f 33//2 81//2 237//2 136//2
f 81//2 11//2 129//2 237//2
f 101//2 238//2 137//2 21//2
f 4//2 113//2 238//2 101//2
f 113//2 33//2 136//2 238//2
f 69//2 239//2 73//2 3//2
f 21//2 137//2 239//2 69//2
f 137//2 52//2 135//2 239//2
f 132//1 240//1 134//1 51//1
f 31//1 79//1 240//1 132//1
f 79//1 9//1 130//1 240//1
f 67//1 241//1 133//1 19//1
f 2//1 111//1 241//1 67//1
f 111//1 31//1 132//1 241//1
f 99//1 242//1 70//1 1//1
f 19//1 133//1 242//1 99//1
f 133//1 51//1 131//1 242//1
f 131//1 243//1 102//1 22//1
f 51//1 134//1 243//1 131//1
f 134//1 50//1 98//1 243//1
f 135//2 244//2 105//2 25//2
f 52//2 138//2 244//2 135//2
f 138//2 49//2 97//2 244//2
f 139//3 245//3 108//3 28//3
f 53//3 142//3 245//3 139//3
f 142//3 48//3 96//3 245//3
f 143//4 246//4 110//4 30//4
f 54//4 146//4 246//4 143//4
f 146//4 47//4 95//4 246//4
f 147//5 247//5 126//5 46//5
f 55//5 150//5 247//5 147//5
f 150//5 25//5 105//5 247//5
f 151//5 248//5 125//5 45//5
f 56//5 154//5 248//5 151//5
f 154//5 44//5 92//5 248//5
f 155//5 249//5 84//5 36//5
f 57//5 158//5 249//5 155//5
f 158//5 43//5 91//5 249//5
f 159//6 250//6 122//6 42//6
f 58//6 162//6 250//6 159//6
f 162//6 23//6 103//6 250//6
f 163//6 251//6 121//6 41//6
f 59//6 166//6 251//6 163//6
f 166//6 40//6 88//6 251//6
f 167//6 252//6 79//6 31//6
f 60//6 170//6 252//6 167//6
f 170//6 39//6 87//6 252//6
f 171//6 253//6 68//6 20//6
f 61//6 174//6 253//6 171//6
f 174//6 33//6 113//6 253//6
f 175//5 254//5 76//5 28//5
f 62//5 178//5 254//5 175//5
f 178//5 34//5 114//5 254//5
f 179//4 255//4 118//4 38//4
f 63//4 182//4 255//4 179//4
f 182//4 19//4 99//4 255//4
f 183//3 256//3 116//3 36//3
f 64//3 186//3 256//3 183//3
f 186//3 27//3 75//3 256//3
f 187//2 257//2 114//2 34//2
f 65//2 190//2 257//2 187//2
f 190//2 24//2 72//2 257//2
f 191//1 258//1 112//1 32//1
f 66//1 194//1 258//1 191//1
f 194//1 21//1 69//1 258//1
