# Blender v2.76 (sub 0) OBJ File: ''
# www.blender.org
mtllib needleVisual.mtl
o All_Meshes_default
v 0.000000 0.000000 0.500000
v 0.006010 0.005835 -0.500000
v 0.007828 0.003148 -0.500000
v 0.008500 0.000000 -0.500000
v 0.007828 -0.003148 -0.500000
v 0.006010 -0.005835 -0.500000
v 0.003243 -0.007599 -0.500000
v 0.000000 -0.008251 -0.500000
v -0.003243 -0.007599 -0.500000
v -0.006010 -0.005835 -0.500000
v -0.007828 -0.003148 -0.500000
v -0.008500 0.000000 -0.500000
v -0.007828 0.003148 -0.500000
v -0.006010 0.005835 -0.500000
v -0.003243 0.007599 -0.500000
v 0.000000 0.008251 -0.500000
v 0.003243 0.007599 -0.500000
vn 0.000000 0.000000 1.000000
vn 0.000000 0.749300 -0.662300
vn -0.279100 0.692700 -0.665000
vn 0.688500 0.293100 -0.663400
vn 0.523300 0.537700 -0.661100
vn 0.751400 0.000000 -0.659800
vn 0.688500 -0.293100 -0.663400
vn 0.523300 -0.537700 -0.661100
vn 0.279100 -0.692700 -0.665000
vn 0.000000 -0.749300 -0.662300
vn -0.279100 -0.692700 -0.665000
vn -0.523300 -0.537700 -0.661100
vn -0.688500 -0.293100 -0.663400
vn -0.751400 0.000000 -0.659800
vn -0.688500 0.293100 -0.663400
vn -0.523300 0.537700 -0.661100
vn 0.279100 0.692700 -0.665000
usemtl None
s 1
f 1//1 16//2 15//3
f 3//4 2//5 1//1
f 4//6 3//4 1//1
f 4//6 1//1 5//7
f 5//7 1//1 6//8
f 6//8 1//1 7//9
f 7//9 1//1 8//10
f 9//11 8//10 1//1
f 10//12 9//11 1//1
f 1//1 11//13 10//12
f 12//14 11//13 1//1
f 1//1 13//15 12//14
f 1//1 14//16 13//15
f 1//1 15//3 14//16
f 17//17 16//2 1//1
f 2//5 17//17 1//1
f 13//15 14//16 15//3 16//2 17//17 2//5 3//4 4//6 5//7 6//8 7//9 8//10 9//11 10//12 11//13 12//14
