# Blender v2.76 (sub 0) OBJ File: ''
# www.blender.org
mtllib cube_64f.mtl
o Cube
v -5.000000 -1.500000 5.000000
v -5.000000 1.500000 5.000000
v -5.000000 -1.500000 -5.000000
v -5.000000 1.500000 -5.000000
v 5.000000 -1.500000 5.000000
v 5.000000 1.500000 5.000000
v 5.000000 -1.500000 -5.000000
v 5.000000 1.500000 -5.000000
v -5.000000 1.500000 0.000000
v -5.000000 -1.500000 0.000000
v 0.000000 1.500000 -5.000000
v 0.000000 -1.500000 -5.000000
v 5.000000 1.500000 0.000000
v 5.000000 -1.500000 0.000000
v 0.000000 1.500000 5.000000
v 0.000000 -1.500000 5.000000
v 0.000000 1.500000 0.000000
v 0.000000 -1.500000 0.000000
v -5.000000 0.000000 5.000000
v -5.000000 1.500000 -2.500000
v -5.000000 0.000000 -5.000000
v -5.000000 -1.500000 2.500000
v 2.500000 1.500000 -5.000000
v 5.000000 0.000000 -5.000000
v -2.500000 -1.500000 -5.000000
v 5.000000 1.500000 2.500000
v 5.000000 0.000000 5.000000
v 5.000000 -1.500000 -2.500000
v -2.500000 1.500000 5.000000
v 2.500000 -1.500000 5.000000
v -5.000000 1.500000 2.500000
v -5.000000 -1.500000 -2.500000
v -2.500000 1.500000 -5.000000
v 2.500000 -1.500000 -5.000000
v 5.000000 1.500000 -2.500000
v 5.000000 -1.500000 2.500000
v 2.500000 1.500000 5.000000
v -2.500000 -1.500000 5.000000
v -2.500000 1.500000 0.000000
v 2.500000 1.500000 0.000000
v 0.000000 1.500000 2.500000
v 0.000000 1.500000 -2.500000
v 2.500000 -1.500000 0.000000
v -2.500000 -1.500000 0.000000
v 0.000000 -1.500000 2.500000
v 0.000000 -1.500000 -2.500000
v 0.000000 0.000000 5.000000
v 5.000000 0.000000 0.000000
v 0.000000 0.000000 -5.000000
v -5.000000 0.000000 0.000000
v -5.000000 0.000000 2.500000
v -2.500000 0.000000 -5.000000
v 5.000000 0.000000 -2.500000
v 2.500000 0.000000 5.000000
v -2.500000 -1.500000 -2.500000
v -2.500000 -1.500000 2.500000
v 2.500000 -1.500000 2.500000
v 2.500000 1.500000 -2.500000
v 2.500000 1.500000 2.500000
v -2.500000 1.500000 2.500000
v -2.500000 1.500000 -2.500000
v 2.500000 -1.500000 -2.500000
v -2.500000 0.000000 5.000000
v 5.000000 0.000000 2.500000
v 2.500000 0.000000 -5.000000
v -5.000000 0.000000 -2.500000
vn -1.000000 0.000000 0.000000
vn 0.000000 0.000000 -1.000000
vn 1.000000 0.000000 0.000000
vn 0.000000 0.000000 1.000000
vn 0.000000 -1.000000 0.000000
vn 0.000000 1.000000 0.000000
usemtl None
s off
f 66//1 21//1 3//1 32//1
f 65//2 24//2 7//2 34//2
f 64//3 27//3 5//3 36//3
f 63//4 19//4 1//4 38//4
f 62//5 34//5 7//5 28//5
f 61//6 33//6 4//6 20//6
f 60//6 39//6 9//6 31//6
f 59//6 40//6 17//6 41//6
f 58//6 23//6 11//6 42//6
f 57//5 43//5 14//5 36//5
f 56//5 44//5 18//5 45//5
f 55//5 25//5 12//5 46//5
f 54//4 47//4 16//4 30//4
f 53//3 48//3 14//3 28//3
f 52//2 49//2 12//2 25//2
f 51//1 50//1 10//1 22//1
f 19//1 51//1 22//1 1//1
f 2//1 31//1 51//1 19//1
f 31//1 9//1 50//1 51//1
f 21//2 52//2 25//2 3//2
f 4//2 33//2 52//2 21//2
f 33//2 11//2 49//2 52//2
f 24//3 53//3 28//3 7//3
f 8//3 35//3 53//3 24//3
f 35//3 13//3 48//3 53//3
f 27//4 54//4 30//4 5//4
f 6//4 37//4 54//4 27//4
f 37//4 15//4 47//4 54//4
f 44//5 55//5 46//5 18//5
f 10//5 32//5 55//5 44//5
f 32//5 3//5 25//5 55//5
f 38//5 56//5 45//5 16//5
f 1//5 22//5 56//5 38//5
f 22//5 10//5 44//5 56//5
f 30//5 57//5 36//5 5//5
f 16//5 45//5 57//5 30//5
f 45//5 18//5 43//5 57//5
f 40//6 58//6 42//6 17//6
f 13//6 35//6 58//6 40//6
f 35//6 8//6 23//6 58//6
f 37//6 59//6 41//6 15//6
f 6//6 26//6 59//6 37//6
f 26//6 13//6 40//6 59//6
f 29//6 60//6 31//6 2//6
f 15//6 41//6 60//6 29//6
f 41//6 17//6 39//6 60//6
f 39//6 61//6 20//6 9//6
f 17//6 42//6 61//6 39//6
f 42//6 11//6 33//6 61//6
f 43//5 62//5 28//5 14//5
f 18//5 46//5 62//5 43//5
f 46//5 12//5 34//5 62//5
f 47//4 63//4 38//4 16//4
f 15//4 29//4 63//4 47//4
f 29//4 2//4 19//4 63//4
f 48//3 64//3 36//3 14//3
f 13//3 26//3 64//3 48//3
f 26//3 6//3 27//3 64//3
f 49//2 65//2 34//2 12//2
f 11//2 23//2 65//2 49//2
f 23//2 8//2 24//2 65//2
f 50//1 66//1 32//1 10//1
f 9//1 20//1 66//1 50//1
f 20//1 4//1 21//1 66//1
